<svg xmlns="http://www.w3.org/2000/svg" xmlns:xlink="http://www.w3.org/1999/xlink" style="width: 0; height: 0; visibility: hidden; position: absolute;" aria-hidden="true">
<symbol  viewBox='-6 0 512 512' id='calendar'>
  <g fill="#cd7f32">
    <path d="M227.7 357.5a15.1 15.1 0 0021.3 0l54-54a15.1 15.1 0 10-21.4-21.3l-43.3 43.2-19.7-19.7a15.1 15.1 0 00-21.4 21.4zm0 0"></path>
    <path d="M250.1 439.8a120.1 120.1 0 10-120-120c0 66.2 53.8 120 120 120zm0-209.7a89.9 89.9 0 010 179.5 89.9 89.9 0 010-179.5zm0 0"></path>
    <path d="M451.3 32.2h-27.5v-17a15.1 15.1 0 00-30.3 0v17h-29.7v-17a15.1 15.1 0 00-30.2 0v17h-167v-17a15.1 15.1 0 00-30.2 0v17h-29.7v-17a15.1 15.1 0 00-30.2 0v17H48.9A49 49 0 000 81v382a49 49 0 0048.9 49h402.4a49 49 0 0049-48.9v-382a49 49 0 00-49-49zm18.7 431c0 10.2-8.4 18.6-18.7 18.6H49A18.7 18.7 0 0130.2 463V158H470zM30.2 81c0-10.3 8.4-18.7 18.7-18.7h27.6v17.1a15.1 15.1 0 0030.2 0v-17h29.7v17a15.1 15.1 0 0030.3 0v-17h166.9v17a15.1 15.1 0 0030.2 0v-17h29.7v17a15.1 15.1 0 0030.3 0v-17h27.5c10.3 0 18.7 8.3 18.7 18.6v46.6H30.2zm0 0"></path>
   </g>
  </symbol>
  <symbol  viewBox='0 0 509.2 509.2' id='enviroment'>
    <g fill="#cd7f32"><path d="M254.6 0C119 0 31.3 143.8 92.2 264l93.4 201.2a76 76 0 00138 0L417 264.1C478 143.9 390.4 0 254.6 0zm133.8 249.8l-93.8 202a44 44 0 01-80 0l-93.8-202C71 151.6 141.8 32 254.6 32c112.7 0 183.7 119.5 133.8 217.8z"></path><path d="M254.6 93a89 89 0 000 177.9 89 89 0 000-177.8zm0 145.9a57 57 0 11.1-114 57 57 0 010 114z"></path></g>
  </symbol>
  <symbol  viewBox='0 0 512 512' id='facebook'>
    <path d="M75 512h167V330h-60v-60h60v-75a75 75 0 0175-75h75v60h-60a30 30 0 00-30 30v60h87.3l-10 60H302v182h135a75 75 0 0075-75V75a75 75 0 00-75-75H75A75 75 0 000 75v362a75 75 0 0075 75zM30 75a45 45 0 0145-45h362a45 45 0 0145 45v362a45 45 0 01-45 45H332V360h72.7l20-120H332v-30h90V90H317c-57.9 0-105 47.1-105 105v45h-60v120h60v122H75a45 45 0 01-45-45zm0 0" fill="#cd7f32"></path>
  </symbol>
  <symbol  viewBox='0 0 512 512' id='gift'>
    <path d="M480 143.7H378.8c7.2-5 13.5-9.9 17.8-14.3a67 67 0 000-94.2 67.6 67.6 0 00-93.8 0c-13.9 14-50.7 70.6-45.6 108.5h-2.4c5.1-37.9-31.7-94.5-45.6-108.5a67.6 67.6 0 00-93.8 0 67 67 0 000 94.2c4.3 4.4 10.6 9.3 17.8 14.3H32a32 32 0 00-32 32v80a16 16 0 0016 16h16v192a32 32 0 0032 32h384a32 32 0 0032-32v-192h16a16 16 0 0016-16v-80a32 32 0 00-32-32zM138 57.8a34 34 0 0148.6 0c21.5 21.7 43 77.1 35.5 84.8 0 0-1.3 1-6 1-22 0-64.2-22.9-78-36.8a34.9 34.9 0 010-49zm102 405.9H64v-192h176v192zm0-224H32v-64h208v64zm85.4-181.9a35 35 0 0148.5 0 34.9 34.9 0 010 49c-13.8 14-56 36.9-78 36.9-4.7 0-6-1-6-1-7.5-7.8 14-63.2 35.5-84.9zM448 463.7H272v-192h176v192zm32-224H272v-64h208v64z" fill="#cd7f32"></path>
  </symbol>
  <symbol  viewBox='0 0 512 512' id='instagram'>
    <g fill="#cd7f32"><path d="M75 512h362a75 75 0 0075-75V75a75 75 0 00-75-75H75A75 75 0 000 75v362a75 75 0 0075 75zM30 75a45 45 0 0145-45h362a45 45 0 0145 45v362a45 45 0 01-45 45H75a45 45 0 01-45-45zm0 0"></path><path d="M256 391c74.4 0 135-60.6 135-135s-60.6-135-135-135-135 60.6-135 135 60.6 135 135 135zm0-240a105.1 105.1 0 010 210 105.1 105.1 0 010-210zm150 0a45 45 0 10-.1-90.1 45 45 0 00.1 90.1zm0-60a15 15 0 110 30 15 15 0 010-30zm0 0"></path></g>
  </symbol>
  <symbol  viewBox='0 0 479.1 479.1' id='mail'>
    <path d="M434.1 59.9H45a45 45 0 00-45 44.9v269.5a45 45 0 0045 44.9h389a45 45 0 0045-45V104.9a45 45 0 00-45-45zm0 30c2 0 4 .3 5.8 1L239.5 264.7 39.2 91c1.7-.8 3.7-1.2 5.7-1.2zm0 299.3H45a15 15 0 01-15-15V122.7l199.8 173.2a15 15 0 0019.6 0l199.8-173.2v251.7a15 15 0 01-15 15z" fill="#cd7f32"></path>
  </symbol>
  <symbol  viewBox='0 0 357 357' id='menu-close'>
    <path fill="#000" d="M357 35.7L321.3 0 178.5 142.8 35.7 0 0 35.7l142.8 142.8L0 321.3 35.7 357l142.8-142.8L321.3 357l35.7-35.7-142.8-142.8z"></path>
  </symbol>
  <symbol  viewBox='0 0 612 612' id='menu-open'>
    <path fill="#000" d="M0 95.6V134h612V95.6H0zm0 229.5h612V287H0v38zm0 191.3h612V478H0v38.3z"></path>
  </symbol>
  <symbol  viewBox='0 0 55 55' id='music-player'>
    <path d="M52.7.2a1 1 0 00-.8-.2l-31 4a1 1 0 00-.9 1v35.6a10.4 10.4 0 00-8-3.6c-5.5 0-10 4-10 9s4.5 9 10 9 10-4 10-9V16.1l29-3.7v18.2a10.4 10.4 0 00-8-3.6c-5.5 0-10 4-10 9s4.5 9 10 9 10-4 10-8.9V1a1 1 0 00-.3-.8z" fill="#cd7f32"></path>
  </symbol>
  <symbol  viewBox='0 0 512 512' id='open-book'>
    <g fill="#cd7f32"><path d="M291 242.8a8.6 8.6 0 0011.5 3.7c.5-.2 50.8-25.7 75.5-33.6a8.5 8.5 0 00-5.1-16.2c-26.1 8.2-76 33.6-78.1 34.6a8.5 8.5 0 00-3.7 11.5zm7.7-97.8c1.3 0 2.6-.2 3.8-.9.5-.2 50.8-25.7 75.5-33.6a8.5 8.5 0 00-5.1-16.2c-26.1 8.2-76 33.6-78.1 34.6a8.5 8.5 0 003.9 16.2z"></path><path d="M503.5 128a8.5 8.5 0 00-8.6 8.5v332.8a25.6 25.6 0 01-25.6 25.6H264.5v-19.6a251.5 251.5 0 0176.8-14.5c74.4 0 124.8 16.5 125.3 16.6a8.6 8.6 0 0011.3-8V93.8c0-4-2.8-7.5-6.7-8.4 0 0-6.7-1.5-18.1-3.6a8.5 8.5 0 00-3.1 16.8l10.8 2.1V458a482 482 0 00-119.5-14.3 268 268 0 00-85 16.4 200 200 0 00-77.1-16.4 575 575 0 00-128 14.7v-358c17-4.1 67.4-15 128-15a185 185 0 0168.3 14v335.8a8.5 8.5 0 0012.9 7.3c.8-.5 85.4-51 160.4-76a8.5 8.5 0 005.9-8.1V8.5a8.5 8.5 0 00-11.6-8c-68.2 25.6-137.3 68.6-138 69a8.5 8.5 0 009 14.5 912 912 0 01123.5-63v331.3c-58.2 20.2-119 53.3-145 68V94c0-3.3-1.9-6.2-4.8-7.7-1.5-.7-36.4-18-80.6-18A553.8 553.8 0 0040.3 85.8a8.5 8.5 0 00-6.2 8.2v375.4a8.6 8.6 0 0011 8.2c.5-.1 59.5-16.7 134.1-16.7 31.2 0 57.9 9.7 68.3 14V495H42.7A25.6 25.6 0 0117 469.3V136.5a8.5 8.5 0 00-17.1 0v332.8A42.7 42.7 0 0042.7 512h426.6a42.7 42.7 0 0042.7-42.7V136.5c0-4.7-3.8-8.5-8.5-8.5z"></path><path d="M291 191.6a8.6 8.6 0 0011.5 3.7c.5-.2 50.8-25.7 75.5-33.6a8.5 8.5 0 00-5.1-16.2c-26.1 8.2-76 33.6-78.1 34.6a8.5 8.5 0 00-3.7 11.5zm0 102.4a8.6 8.6 0 0011.5 3.7c.5-.2 50.8-25.7 75.5-33.6a8.5 8.5 0 00-5-16.1c-26.1 8.2-76 33.6-78.1 34.6a8.5 8.5 0 00-3.7 11.5zm-84.3-135.6c-52.6-12.4-112.5 3.4-115 4A8.5 8.5 0 0096 179c.6-.1 58.2-15.3 106.8-4a8.5 8.5 0 103.8-16.5zm0 51.2c-52.6-12.4-112.5 3.4-115 4a8.5 8.5 0 004.4 16.5c.6-.1 58.2-15.3 106.8-4a8.5 8.5 0 103.8-16.5zM291 345.2a8.6 8.6 0 0011.5 3.7c.5-.2 50.8-25.7 75.5-33.6a8.5 8.5 0 00-5.1-16.2c-26.1 8.2-76 33.6-78.1 34.6a8.5 8.5 0 00-3.7 11.5zm-84.3-84.4c-52.6-12.4-112.5 3.3-115 4a8.5 8.5 0 004.4 16.5c.6-.1 58.2-15.3 106.8-4a8.5 8.5 0 103.8-16.5zm0 102.4c-52.6-12.4-112.5 3.4-115 4a8.5 8.5 0 004.4 16.5c.6-.1 58.2-15.3 106.8-4a8.5 8.5 0 103.8-16.5zm0-51.2c-52.6-12.4-112.5 3.3-115 4a8.5 8.5 0 004.4 16.5c.6-.1 58.2-15.3 106.8-4a8.5 8.5 0 103.8-16.5z"></path></g>
  </symbol>
  <symbol  viewBox='0 0 274.9 274.9' id='partialy-cloudy'>
    <path d="M110 204.4a7.5 7.5 0 00-7.6 7.5v21.3a7.5 7.5 0 1015 0V212c0-4.2-3.4-7.5-7.5-7.5zm0-147.1c4 0 7.4-3.4 7.4-7.5V28.4a7.5 7.5 0 00-15 0v21.4c0 4.1 3.4 7.5 7.5 7.5zM47.3 78.8a7.5 7.5 0 0010.6 0c3-3 3-7.7 0-10.6l-15.1-15a7.5 7.5 0 10-10.6 10.5l15 15.1zm136.2 52c0 4.2 3.3 7.5 7.5 7.5h21.3a7.5 7.5 0 100-15H191a7.5 7.5 0 00-7.5 7.5zm-147.2 0c0-4.1-3.3-7.5-7.5-7.5H7.5a7.5 7.5 0 100 15h21.3c4.2 0 7.5-3.3 7.5-7.5zM167.2 81c2 0 3.9-.7 5.3-2.2l15.1-15A7.5 7.5 0 10177 53l-15 15a7.5 7.5 0 005.2 12.9zM47.3 182.8L32.2 198a7.5 7.5 0 1010.6 10.6l15-15a7.5 7.5 0 10-10.5-10.7zm121-52a58.4 58.4 0 10-117 .2 58.4 58.4 0 00117-.2zm-101.8 0a43.4 43.4 0 1186.9.1 43.4 43.4 0 01-86.9 0zm173.1 53.4a39 39 0 00-34.7-21.2c-20.4 0-37 15.5-38.5 35a28.4 28.4 0 00-23.5 27.8 28.5 28.5 0 0028.7 28.2h67.8a35.2 35.2 0 0035.5-34.9 35.2 35.2 0 00-35.3-34.9zm-.2 54.8h-67.8c-7.5 0-13.7-6-13.7-13.2a13.4 13.4 0 0115.3-13 7.5 7.5 0 008.3-8.6l-.2-3.3c0-12.7 10.6-23 23.6-23 10.4 0 19.7 6.8 22.6 16.4a7.5 7.5 0 008.5 5.2 20.2 20.2 0 0124 19.6c0 11-9.3 19.9-20.6 19.9z" fill="#cd7f32"></path>
  </symbol>
  <symbol  viewBox='0 0 512 512' id='phone'>
    <path d="M498.8 377.6L435.2 314a45 45 0 00-63.7 0l-28.9 29a34.1 34.1 0 01-48.2 0L169 217.3a34 34 0 010-48.2l29-29a45 45 0 00-.1-63.6l-63.6-63.4a45 45 0 00-63.6 0c-13.1 12.9-17.4 17-23.2 23a162.5 162.5 0 000 229.4l198.7 198.8a162.2 162.2 0 00229.5 0l23.1-23.1a45 45 0 000-63.7zM91.8 34.4a15 15 0 0121.3 0l63.6 63.4a15 15 0 010 21.2l-10.6 10.7-84.8-84.9 10.5-10.4zm175.6 408.8L68.7 244.4c-49-49-51.7-125.8-8.3-178L145 151a64 64 0 002.8 87.6l125.4 125.5a64 64 0 0087.6 2.8l84.6 84.6c-52 43.3-128.7 41-178-8.3zm210.2-23.1L467 430.7l-84.9-84.9 10.6-10.6a15 15 0 0121.3 0l63.6 63.6a15 15 0 010 21.3z" fill="#cd7f32"></path>
  </symbol>
  <symbol  viewBox='0 0 512 512' id='placeholder'>
    <g fill="#cd7f32"><path d="M256 0a180.2 180.2 0 00-153.1 274.7l142.9 230.2a15 15 0 0012.7 7.1h.1a15 15 0 0012.8-7.3l139.2-232.5A180.2 180.2 0 00256 0zm128.9 256.8L258.3 468.2l-130-209.4A149.8 149.8 0 01256 29.8a150.4 150.4 0 01128.9 227z"></path><path d="M256 90a90.1 90.1 0 10.2 180.2A90.1 90.1 0 00256 90zm0 150.2a60.2 60.2 0 110-120.5 60.2 60.2 0 010 120.5z"></path></g>
  </symbol>
  <symbol  viewBox='0 0 489 489' id='shopping-bag'>
    <path d="M440.1 422.7l-28-315.3c-.6-7-6.5-12.3-13.4-12.3h-57.6a96.7 96.7 0 00-193.2 0H90.3c-7 0-12.8 5.3-13.4 12.3l-28 315.3-.1 1.2c0 35.9 32.9 65.1 73.4 65.1h244.6c40.5 0 73.4-29.2 73.4-65.1l-.1-1.2zM244.5 27a69.7 69.7 0 0169.6 68.1H174.9A69.7 69.7 0 01244.5 27zm122.3 435H122.2c-25.4 0-46-16.8-46.4-37.5l26.8-302.3h45.2v41c0 7.5 6 13.5 13.5 13.5s13.5-6 13.5-13.5v-41h139.3v41c0 7.5 6 13.5 13.5 13.5s13.5-6 13.5-13.5v-41h45.2l26.9 302.3c-.4 20.7-21.1 37.5-46.4 37.5z" fill="#cd7f32"></path>
  </symbol>
  <symbol  viewBox='0 0 49.9 49.9' id='star'>
    <path d="M48.9 22.7c1-1 1.3-2.3.9-3.6a3.6 3.6 0 00-3-2.5l-12-1.7c-.5-.1-1-.4-1.2-.9L28.2 3a3.6 3.6 0 00-6.4 0l-5.4 11c-.3.5-.7.8-1.2.9L3 16.6a3.6 3.6 0 00-3 2.5c-.3 1.3 0 2.7 1 3.6l8.7 8.6c.4.3.6.8.5 1.4l-2 12c-.3 1.4.2 2.7 1.3 3.5 1.2.8 2.6 1 3.8.3l10.8-5.7c.5-.3 1-.3 1.5 0l10.8 5.7a3.6 3.6 0 005.2-3.8l-2-12c-.1-.6 0-1 .4-1.4l8.8-8.6zM37.7 33l2 12c.1.6 0 1.2-.6 1.6-.5.3-1.1.4-1.6.1L26.6 41a3.6 3.6 0 00-3.3 0l-10.8 5.7c-.6.3-1.2.2-1.7-.1-.5-.4-.7-1-.6-1.6l2-12c.3-1.2-.1-2.4-1-3.2l-8.7-8.5c-.5-.4-.6-1-.4-1.6.2-.6.6-1 1.3-1.1l12-1.8c1.2-.1 2.2-.9 2.7-2L23.6 4c.2-.5.8-.9 1.4-.9.6 0 1.1.4 1.4 1L31.8 15c.5 1 1.5 1.8 2.7 2l12 1.7c.7 0 1.2.5 1.4 1 .1.7 0 1.3-.4 1.7l-8.8 8.5c-.8.8-1.2 2-1 3.2z" fill="#cd7f32"></path>
  </symbol>
  <symbol  viewBox='1 -35 512 511' id='telegram'>
    <path d="M121.5 253.2L185 412l82.8-82.8 141.5 112.5L512 .5 0 206zm-40-47.7l244-98-194 117.4zm287.6-89.2L207 264.5l-19.5 73.4-36-90zM219.2 335.5l9.8-37 15.2 12zM390.9 389L243.5 271.8l221.9-203zm0 0" fill="#cd7f32"></path>
  </symbol>
  <symbol  viewBox='0 0 489.3 489.3' id='wifi'>
    <g fill="#cd7f32"><path d="M79.5 229.7a26.3 26.3 0 000 37 26.3 26.3 0 0037.1 0 181.3 181.3 0 01256.2 0 26.1 26.1 0 1037-37 233.6 233.6 0 00-330.3 0z"></path><path d="M150.3 300.5a26.3 26.3 0 000 37 26.3 26.3 0 0037.1 0 80.9 80.9 0 01114.4 0 26.1 26.1 0 1037-37 133.3 133.3 0 00-188.5 0z"></path><circle cx="244.7" cy="394.7" r="34.9"></circle><path d="M481.6 157.7a335.7 335.7 0 00-474 0 26.3 26.3 0 000 37 26.3 26.3 0 0037.1 0 283 283 0 01400 0 26.1 26.1 0 1037-37z"></path></g>
  </symbol>
  <symbol  viewBox='0 -61 512 512' id='youtube'>
    <g fill="#cd7f32"><path d="M75 390h362a75 75 0 0075-75V75a75 75 0 00-75-75H75A75 75 0 000 75v240a75 75 0 0075 75zM30 75a45 45 0 0145-45h362a45 45 0 0145 45v240a45 45 0 01-45 45H75a45 45 0 01-45-45zm0 0"></path><path d="M181 94.5v204l180.5-103.7zm30 51l89.5 49.7-89.5 51.4zm0 0"></path></g>
  </symbol></svg>